<svg xmlns="http://www.w3.org/2000/svg" viewBox="0 0 512 452"><path fill="#010303" d="M0 0h512v452H0z"/><path fill="#023737" d="M66.897 115.594c.366-2.532 11.01-5.812 12.482-9.396.547-1.33 7.812-4.437 9.84-5.624l19.822-11.646c1.662-.983 3.5-2.86 4.936-3.697 2.854-1.74 5.668-3.677 8.545-5.363 2.152-1.084 4.476-2.09 6.696-3.019 3.954-1.654 7.32-3.906 10.9-6.19 2.732-1.741 5.832-3.257 8.44-5.203 1.55-1.158 2.847-3.235 4.606-4.244 3.536-2.122 7.5-3.427 11.006-5.516.937-.558 2.916-3.177 4.064-3.868 3.705-2.226 7.941-3.63 11.673-5.662 2.668-1.452 5.251-4.32 8.094-5.732 2.231-1.11 3.957-.827 6.17-2.273 4.14-2.704 7.005-6.289 11.332-8.864 3.555-2.115 6.537-2.19 10.1-4.083 3.215-1.709 5.223-4.16 8.091-6.025 1.057-.687 3.9-1.165 5.683-2.19 3.885-2.23 7.011-4.337 10.64-6.894.806-.568 4.42-2.221 5.626-2.908a447 447 0 0 0 10.284-6.064c1.496-.016 4.033 2.045 5.506 2.933l14.212 8.468 22.645 13.584c1.934 1.136 4.019 2.057 5.936 3.15 1.099.626 2.24 2.03 3.514 2.77a8376 8376 0 0 1 108.51 65.156l19.329 11.74c2.996 1.815 7.117 4.59 10.297 5.905-.128 2.572-.648 9.14-.22 11.5 1.532 8.437-.102 15.76-.005 24.095l.987 58.594c.078 3.165.319 6.28.513 9.436.12 1.965-.37 4.288-.302 6.284.304 9.1-.317 18.353-.224 27.414l.248 49.361c-.02 4.604.43 9.32.254 13.9-.148 3.852-1.066 7.656-1.291 11.462-.11 1.869.434 6.816.05 8.212-.087.318-.415.66-.654.868-2.893 2.513-6.759 3.914-9.932 6.002-1.432.943-2.429 2.592-3.879 3.42-.958.545-2.155.907-3.21 1.208-4.651 1.323-10.667 7.73-13.486 8.313-1.848.382-8.684 4.22-10.069 5.582-1.105 1.087-2.046 2.97-3.32 3.764-3.042 1.899-6.92 2.418-9.963 4.286-2.073 1.272-3.413 3.485-5.506 4.755-2.195 1.33-5.286 1.824-7.21 3.346-1.624 1.283-2.867 3.25-4.638 4.3-2.331 1.382-5.39 1.5-7.626 2.866-3.22 1.968-5.607 5.135-8.947 7.079-1.825 1.062-3.905.348-5.682 1.358-1.498.852-3.54 1.75-4.798 2.932-2.15 2.02-2.998 4.154-5.669 5.868-2.744 1.76-5.541 1.024-8.223 2.265a15 15 0 0 0-2.734 1.673c-3.115 2.38-5.548 5.873-9.22 7.466-2.863 1.242-4.573.625-7.893 2.586-2.832 1.672-4.558 3.604-6.955 5.76-2.762 2.485-7.217 4.437-10.832 5.334-1.443.358-2.744 1.775-3.869 2.726-4.389 3.708-8.785 7.51-14.606 8.613-2.21.419-3.747 2.653-5.759 3.637-2.331 1.14-4.819 1.941-7.087 3.237-1.45.828-6.144 4.527-7.44 4.627-.914.07-18.761-9.95-20.809-11.336-3.267-2.21-7.803-2.782-11.297-4.684-2.824-1.537-4.583-4.07-7.137-5.85-3.578-2.492-7.847-3.989-11.518-6.415-1.708-1.128-2.814-3.095-4.544-4.153-4.51-2.755-9.296-3.077-13.234-5.454-2.554-1.541-4.262-4.316-6.719-5.78-3.215-1.915-6.915-2.862-10.213-4.708-3.083-1.726-5.214-4.63-8.153-6.344-2.501-1.459-5.495-2.004-8.068-3.385-2.001-1.074-3.371-2.979-5.271-4.181-3.733-2.361-7.883-3.865-11.589-6.196-1.945-1.224-2.879-3.567-4.817-4.72-1.835-1.09-3.944-1.858-5.845-2.868-3.577-1.903-7.116-4.11-10.777-5.817-1.455-.679-3.209-.84-4.563-1.697-1.75-1.11-3.119-2.803-4.915-3.836-2.622-1.508-5.766-2.478-8.227-4.222-3.12-2.212-5.835-5.213-9.073-7.221-3.466-2.15-8.435-3.682-11.239-6.596-.676-.703-1.39-1.522-2.196-2.072-2.503-1.71-7.548-3.357-9.367-5.61-.414-.515-.415-1.141-.405-1.78.032-1.865.41-3.825.256-5.68-.35-4.244-1.536-8.423-1.767-12.67-.405-7.475-.075-15.127-.092-22.618-.007-3.079-.341-6.149-.405-9.227-.14-6.892.403-13.708.423-20.577l-.014-52.594c.011-6.3.656-12.362.291-18.787-.228-4.007.456-8.878.425-13.02l-.166-34.04c-.06-5.166-1.38-9.789.036-15.091.465-1.74.823-3.722 1.315-5.53.413-1.518-.672-7.39-.108-8.615"/><path fill="#6dfdeb" d="M256.48 1.615c5.067 3.303 10.865 6.628 16.089 9.739l25.051 14.99 84.51 50.915 44.866 27.174 11.18 6.725c1.651.997 4.772 2.995 6.456 3.707.715 1.132.414 20.772.413 23.601l.004 41.138.093 155.798c-12.72 8.082-27.217 16.288-40.272 24.153L301.152 421.73l-27.451 16.39c-5.64 3.341-11.954 6.887-17.356 10.489-9.536-5.922-19.715-11.73-29.405-17.556l-82.589-49.415-49.299-29.577c-8.601-5.185-18.949-11.813-27.65-16.583-.28-16.368.028-33.578.001-50.054l-.033-108.678.004-43.597-.002-11.443c-.002-1.272.043-5.01-.156-6.102 1.16-1.192 17.262-10.674 19.831-12.213l50.256-30.173 80.207-48.404 25.014-15.057c4.405-2.632 9.49-5.807 13.956-8.14"/><path fill="#021415" d="M255.454 279.41c2.019-.286 6.317 2.046 8.307 2.899l13.07 5.546 36.486 15.585c6.444 2.742 14.244 6.358 20.702 8.654.165 7.764.01 16.028.002 23.83l.002 44.174c-2.764 2.005-6.468 4.135-9.439 5.944l-16.416 9.926-51.371 30.804-.638.164c-2.25-.97-8.98-5.195-11.232-6.573l-16.552-9.942-34.46-20.771c-4.82-2.95-10.727-6.333-15.3-9.455-.183-22.215-.36-45.932-.007-68.07 13.967-5.603 28.631-12.124 42.494-18.116z"/><path fill="#010303" d="M255.27 293.963c.222.058 3.831-.109 4.73.32 3.673 1.752 7.423 4.16 11.02 6.049 4.266 2.24 7.78 3.233 11.76 6.089 1.772 1.27 6.525 2.652 8.857 3.274 1.358.363 2.644.506 4.112 1.056 2.496.935 5.47 3.578 7.623 4.229 5.448 1.65 10.695 2.883 15.24 6.61.892.731 1.86 2.688 1.964 3.808.369 3.99-1.165 9.342-1.06 13.276.143 5.36.423 11.028.682 16.366.311-.215-.168-3.38.16-4.294.273.644.107 6.6.102 7.889-.02 4.352.309 8.17.761 12.47l-.953.415c-1.923 3.61-3.279 1.827-5.818 3.314-3.127 2-6.641 5.033-10.002 6.423-3.788 1.7-9.133.04-9.02 5.861.042 2.208-5.451 3.487-7.18 4.56-.973.605-5.013 3.848-5.513 3.957-4.39.962-4.067 2.943-7.205 5.37-2.123 1.604-5.557 2.282-7.781 3.831q-.702.49-1.388 1.005c-2.835.52-6.535 3.848-11.021 3.325-1.116-.13-.945-.568-2.036-1.293-.399-.265-2.87-.387-3.17-.51-2.921-1.646-10.165-3.836-12.55-5.695-2.15-1.675-2.817-5.87-7.997-6.056-.475-.017-4.717-1.7-5.435-2.082-4.702-2.505-8.857-6.018-13.312-8.885-3.128-2.018-6.454-3.344-9.734-4.981-.791-.395-2.605-3.496-3.415-4.033-4.181-2.774-7.018-3.264-6.663-8.994.022-2.84.128-6.397.12-9.325l-.074-21.589c.013-3.382-.518-6.734.004-10.1.308-1.987 1.242-1.882 2.443-3.178 1.96-2.113 4.685-2.657 7.185-3.84 2.63-1.246 5.283-2.42 7.921-3.637l13.685-6.191c4.583-2.126 8.057-4.189 13.17-5.205 1.303-.259 1.24-1.452 1.78-2.568 1.279-.54 3.636-.072 4.13-.365 4.486-2.651 8.96-4.87 13.879-6.676"/><path fill="#021415" d="M255.815 23.44c1.284-.066 14.579 8.248 16.812 9.572l41.53 24.964c6.025 3.622 13.668 8.668 19.793 11.837.377 21.568-.43 43.848.147 65.338-10.38 4.1-21.324 8.987-31.636 13.412a3029 3029 0 0 1-45.775 19.294c-1.441.072-8.057-2.896-9.912-3.673l-17.581-7.48c-16.816-7.12-33.93-14.27-50.635-21.592l-.022-65.212c2.083-1.503 5.853-3.603 8.199-5.014q8.435-5.085 16.926-10.073z"/><path fill="#010303" d="M256.144 39.732c1.958-.306 4.343 2.09 5.989 3.29 2.253 1.643 4.64 3.074 6.87 4.675 3.641 2.612 6.899 6.05 10.66 8.582 1.008.681 3.95 1.692 5.352 2.359 6.08 2.887 11.48 6.316 17.365 9.507 2.244 1.218 6.546 5.59 8.929 7.234 2.325 1.605 6.89 3.849 8.563 5.79 0 4.33-1.193 8-1.133 12.313l.155 20.184c.018 1.64.982 10.12-.73 10.825-4.334 1.784-8.319 4.232-12.623 6-2.197.901-5.494 1.116-7.772 1.999-1.73.711-3.478 3.122-5.39 3.333-3.248.481-7.694-2.538-10.92-1.454-2.454.825-5.747 3.035-8.18 4.16-1.622.751-1.041 3.472-1.534 4.938-1.774 5.275-8.64 4.285-11.851 6.063l-.765.423-.374.215c-.646.619-1.436.927-2.281 1.397-2.265 1.258-6.685-1.24-8.986-2.025-.49-.167-2.424-2.88-3.323-3.332-2.242-1.124-4.603-1.284-6.869-2.225-.335-1.836-1.65-1.224-3.186-2.108-1.444-.832-3.829-.388-5.305-1.134-2.126-1.074-3.951-3.03-6.149-3.99-6.616-2.91-13.167-5.274-19.927-7.779-.507-.188-7.922-4.992-8.818-5.084-1.383-.143-1.233-7.067-1.359-9.06-.327-6.637-.524-13.75.164-20.357.375-3.612-.328-5.452-.426-8.394-.107-3.188 1.316-8.283 4.993-8.697 2.26-.253 4.42-3.325 5.931-4.774.621-.608 1.814-1.107 2.581-1.532 3.395-1.882 6.233-4.235 10.227-4.659.98-.111 3.405-1.297 4.289-1.85.992-.622 2.207-2.923 3.216-3.693 3.436-1.833 6.63-3.887 9.959-5.895 1.237-.757 2.155-1.963 3.395-2.861l.245-.175.104-1.001c.845-.786 5.175-4.25 6.044-4.442 4.325-.95 9.19-6.09 12.87-6.766"/><path fill="#021415" d="M339.97 152.606c4.96 6.302 11.006 15.143 15.845 21.802a5268 5268 0 0 0 35.447 48.198 4350 4350 0 0 1-32.337 45.107c-5.973 8.227-12.93 18.395-19.265 26.293-4.838-1.69-11.98-4.978-16.833-7.046-18.874-8.373-38.728-16.057-57.792-24.278l.032-78.15c6.626-2.374 14.82-6.19 21.452-8.988 17.842-7.528 35.563-15.517 53.45-22.938"/><path fill="#010303" d="M334.11 171.501c.285.12 1.078.327 1.255.588 3.517 5.158 6.661 10.166 9.135 15.921 1.433 1.98 3.71 3.54 5.23 5.427 1.302 1.617 2.395 3.466 3.715 5.144 1.4 1.782 3.234 3.398 4.496 5.145 2.625 3.634 4 8.15 6.56 11.841 1.019 1.483 5.326 4.695 5.338 6.251.025 3.147-3.538 8.796-5.676 11.106-.403.4-3.483 2.123-3.584 2.41-.958 2.69-2.58 2.804-4.231 4.323-.831.764-1.177 4.275-2.12 5.222-.263.037-1.497.23-1.562.318-.945 1.298-1.293 4.235-2.467 5.426-2.011 2.04-5.32 3.361-7.604 5.003-.942.678-2.491 3.721-3.637 4.414-1.953 1.182-4.882 2.038-6.642 3.373-2.492 1.889-1.099 4.244-1.296 6.703-.061.759-.565 1.203-1.14 1.672-3.131-.592-2.749-1.803-7.035-.893-1.334.283-6.297-3.948-7.562-4.713-1.889-1.143-5.228-1.426-6.838-3.218-3.487-1.952-6.597-1.784-10.521-3.45-4.618-1.962-14.133-5.608-17.7-8.938-.568-.53-1.002-7.778-1.346-9.405.02-.622-.193-1.826-.144-2.15.237-1.554.56-3.187.749-4.752.492-4.077 1.205-8.102 1.356-12.206.05-1.34.16-5.782.774-6.735 2.778-.446 6.926 10.36 8.975.163.39-1.941 3.184-9.515 5.3-9.11 5.216.996 4.61 8.867 7.803 12.105 5.69 4.686 7.671.868 9.655-4.102 3.826-9.585-1.18-9.828-10.028-8.78-.472.476-.353.41-.91.755-3.29-1.383-2.173-3.02-2.78-5.913-.202-.96-1.668-2.782-2.48-2.909-4.566-.716-12.093 3.582-16.12 5.066-.978-.489-2.646-5.555-2.312-6.082.798-1.26 3.418-2.939 4.889-3.43 1.563-.523 3.945-.584 5.605-.8 3.696-2.226 9.003-3.588 12.674-5.295 1.831-.852 3.758-3.051 5.753-4.285 4.457-2.957 9.256-4.857 14.208-6.804 1.95-.767 3.267-.51 5.037-.977 2.323-.613 4.747-2.535 7.228-3.429"/><path fill="#021415" d="M172.536 152.699c6.424 2.177 16.72 7.086 23.31 9.884l51.83 22.292-.164 47.52c-.01 9.868-.186 20.516.167 30.34-5.641 2.075-12.462 5.187-18.126 7.557l-39.467 16.61c-5.486 2.338-11.653 5.098-17.21 7.078-1.492-2.513-5.46-7.53-7.309-10.057q-7.033-9.78-14.188-19.472c-10.138-13.741-19.885-27.915-29.977-41.69 3.453-4.31 7.412-10.11 10.687-14.633l16.445-22.439 14.726-19.993c3.056-4.145 6.543-8.678 9.276-12.997m-86.98 79.196 19.488-.039c2.124 2.742 4.476 6.006 6.475 8.876 16.16 23.205 33.788 45.655 50.094 68.69.48 4.664.165 15.49.163 20.507v40.104c-2.81-1.58-10.612-5.861-13.03-7.722-6.355-3.255-15.417-9.256-21.903-13.064l-24.46-14.535c-5.39-3.207-11.684-6.796-16.84-10.27-.299-12.462-.087-25.76-.082-38.279z"/><path fill="#086460" d="M161.613 309.421c.48 4.665.165 15.49.163 20.508v40.104c-2.81-1.58-10.612-5.861-13.03-7.722 1.57.036 5.248 2.593 6.773 3.537 2.112-.884 3.974-1.774 5.858-3.074.002-1.926-.214-3.87-.235-5.805-.032-2.926.204-5.85.186-8.775-.03-5.175-.722-36.38.285-38.773"/><path fill="#021415" d="M407.724 231.68c6.353.118 12.938.014 19.33.055l.002 92.741c-5.675 3.892-14.629 8.896-20.803 12.592l-43.136 25.722c-3.365 1.982-8.696 5.341-12.082 6.917q-.198-18.405-.126-36.812c0-7.627-.142-15.876.104-23.455 1.224-1.918 3.907-5.26 5.344-7.192q4.96-6.701 9.834-13.465zM161.49 80.334c.442.993.21 50.989.17 56.241-1.065 1.803-3.137 4.512-4.409 6.269l-9.264 12.697c-13.96 19.46-28.765 38.53-42.578 58.079-6.409.13-13.15.008-19.583-.016-.744-.784-.428-78.817-.373-87.448 7.162-4.008 15.186-9.144 22.303-13.455l33.833-20.375c6.356-3.87 13.447-8.416 19.901-11.992"/><path fill="#010303" d="M143 109.9c4.67-.396 2.693 4.442 3.145 6.812 1.458 7.64 2.908 10.862-2.331 17.391-1.214 1.512-3.087 6.536-5.122 8.453-1.001 1.379-2.606 5.032-4.071 5.666-5.015 2.172-3.097 2.937-4.226 6.205l-.18-1.145c-.477.656-1.286 1.801-1.927 2.25-2.14 1.493-2.255 1.115-3.166 3.548-.504 1.35-4.432 4.523-5.006 5.561-1.477 2.67-1.342 3.938-4.414 5.61-1.41 3.582-2.908 7.657-5.389 10.663-1.027 1.393-6.815 7.303-8.624 5.53-.437-1.336-.337-3.65-.38-5.149-.02-2.587-.571-5.508-.43-8.074.359-6.581 1.017-13.03.584-19.634-.124-1.885.24-4.03.078-5.956-.244-2.92-.623-5.844-.965-8.756-.155-1.471-.78-2.125-.585-3.519 2.365-3.56 3.936-3.805 7.608-5.812a124 124 0 0 0 6.267-3.736c2.183-1.368 3.492-3.3 5.73-4.402 5.531-2.724 11.162-5.009 16.856-7.309 2.245-.907 3.521-3.318 6.547-4.197"/><path fill="#021415" d="M350.956 80.442c6.018 3.307 12.733 7.46 18.693 11.017l38.28 23.051q5.972 3.57 11.887 7.234c2.13 1.314 5.041 3.24 7.221 4.323.163 9.076-.01 18.549 0 27.66l-.034 59.797q-9.752.123-19.503-.02c-3.935-4.85-8.466-11.298-12.255-16.444l-16.34-22.035a1364 1364 0 0 1-18.322-25.259c-3.143-4.373-6.62-8.97-9.553-13.423-.41-6.49-.171-15.383-.176-22.06q-.097-16.92.102-33.84"/><path fill="#010303" d="M367.682 108.99c1.248.183 2.805.747 3.938 1.318 1.953.993 3.437 3.126 5.111 4.322 3.346 2.392 7.437 4.344 10.588 7.037 1.328 1.26 3.559 2.099 5.294 2.787 5.226 2.073 9.9 4.141 14.39 7.613 1.522 1.176 3.422 2.388 4.4 4.134.876 1.563-.51 3.412-.922 4.893-.459 2.113-1.91 1.672-2.8 3.215-.761.002-1.97-.621-2.778-.877-4.263-2.209-9.131-3.57-13.78-4.67-.498-.119-1.648-4.784-2.286-5.321-1.876-1.58-4.606-1.652-6.57-3.05-1.977-1.72-2.74-5.257-6.009-5.525-1.846.525-2.293 2.075-3.357 3.534-3.217 4.839-6.716-1.756-6.277-4.79.465-3.22-.859-12.49 1.058-14.62"/><path fill="#010303" d="M374.48 131.96c.775.833 6.828 4.96 8.193 5.139 1.59.21 5.445.486 6.902 1.08 1.386 2.319-2.19 6.605-2.203 9.987-.418 3.902 3.656 4.657 5.79 7.164 1.418 1.665.97 3.562-.76 4.904-.802.58-2.036 1.577-3.046 1.383-3.54-.68-3.834-6.472-5.508-8.496-2.015-2.436-5.828-4.452-7.454-7.485-.705-1.152-.896-4.726-1.553-5.701-2.031-3.013-4.579-4.912-.362-7.974m33.051 37.033.531.148c1.943 2.427 2.581 13.314 3.388 16.85.182.797-.14 2.982-1.31 3.192-.917-.482-2.606-1.89-3.044-2.873-.21-.472-.09-.368-.478-.73a23 23 0 0 0-2.266-4.76c-2.042-3.28-5.546-6.076-2.888-10.175 1.27-1.96 3.53-1.194 5.703-1.584z"/></svg>