<svg xmlns="http://www.w3.org/2000/svg" viewBox="0 0 512 512"><path fill="#211f16" d="M337.919 104.855c11.196-1.21 24.91 2.603 34.255 8.894 12.236-3.284 30.247-2.737 42.579-.333 3.408.665 7.384 2.124 10.567 2.64 1.966-.542 5.212-2.317 7.036-2.937 30.788-10.47 61.115 10.02 43.555 43.332 4.818 9.634 5.334 14.959 2.502 25.1 18.498 28.267-2.308 57.849-27.086 72.975-6.511 3.975-13.854 7.009-20.916 9.815a44 44 0 0 1 1.395 2.248c3.32 5.785 7.32 15.56 7.199 22.251-.05 2.74-.53 4.844-1.238 7.464 11.045 22.463 17.458 57.118 18.978 82.113q.267.247.53.497c5.1 4.875 17.365 20.186 9.059 26.885-8.187 6.603-26.257 5.436-36.336 5.734-7.287.215-14.651.149-21.94.038-6.827-.107-23.803-1.315-29.82-3.667a13.6 13.6 0 0 1-4.931-3.325c-5.245-5.618-4.164-17.788-4.147-25.051q-.028-11.242.087-22.485c-10.028 5.483-18.983 9.889-30.326 12.081-4.654.899-9.222 1.457-13.887 2.217 3.596 6.937 5.957 13.246 6.266 21.173.452 11.642-11.94 10.71-19.918 10.837q-8.204.14-16.408.138c.627 15.534-13.562 15.677-25.387 17.174-7.651.969-15.713.75-23.435.746q-10.737.075-21.467-.325c-10.961-.49-29.385-1.254-37.018-9.867-4.18-4.715-3.72-10.909-3.456-16.78.072-4.917 1.113-14.031 2.081-18.82a183.2 183.2 0 0 1-51.364-17.133c-4.079 14.454-3.22 16.18 3.037 29.026 2.145 4.404 3.786 9.284 2.02 14.132-1.036 2.839-3.109 4.625-5.799 5.872-13.472 6.244-57.25 3.888-71.239-1.288-3.912-1.447-7.667-4.166-9.394-8.07-4.965-11.22 3.166-39.716 7.459-51.24a41.6 41.6 0 0 1-6.993.755c-13.225.189-29.762-7.003-34.347-20.459-2.902-8.515 6.676-8.664 12.689-10.739 9.538-3.293 16.314-8.526 23.51-15.413-9.13-5.851-33.46-23.686-33.129-35.468a8 8 0 0 1 1.312-4.187c3.446-5.259 19.07-15.458 24.798-20.953a174.5 174.5 0 0 1 22.767-56.82 166.37 166.37 0 0 1 102.203-72.97c33.007-7.635 71.12-4.165 102.705 8.04 6.349 2.453 14.098 5.936 19.872 9.542q.223-.28.451-.558c11.328-13.729 23.084-21.039 41.069-22.831"/><path fill="#56f5df" d="M210.565 116.268c2.7.194 5.346.312 8.036.484l3.096.023c3.358.408 6.645.664 9.982 1.044 4.148.552 7.821 1.18 11.94 1.95 2.9-.043 14.88 3.148 17.657 4.297 3.21 1.069 7.12 2.311 10.19 3.627 1.318.543 4.317 1.62 5.42 2.161l2.822 1.204c3.833 1.524 7.622 3.536 11.191 5.61-.606.994-1.689 3.106-2.66 3.521-2.875 1.911-6.503 2.064-9.625 4.445-3.282 2.502-5.68 6.989-8.75 9.108l-.772 1.672c-6.323 10.676-9.336 20.952-7.316 33.521 1.724 10.729 6.505 17.672 15.875 23.166q.353.207.708.41c.604 3.09 1.024 5.074 2.032 8.099.391 1.173 1.903 5.07 2.112 6.004a66 66 0 0 0 3.632 6.628c3.06 4.087 4.487 6.5 8.118 10.37-11.058 6.114-19.81 12.691-30.09 19.888-15.42 10.797-31.779 21-48.544 29.574-2.968 1.517-7.636 3.945-10.588 5.17-2.357.908-4.846 1.921-7.089 3.09-22.201 7.623-39.681 11.112-63.472 10.013-3.53-.163-10.439-.176-13.676-.657-1.709-.433-5.596-.84-7.367-.974-1.986.1-7.74-.992-9.91-1.46-10.37-2.24-29.051-7.184-37.827-13.194a223 223 0 0 1-5.938-3.488c-.817-.245-4.132-2.532-4.949-3.113-8.513-6.052-17.334-13.553-22.321-22.848 3.528-3.007 7.102-5.685 10.758-8.509 2.746-2.121 5.268-4.417 8.142-6.403 1.024-.854 3.744-3.826 4.996-5.025 2.419-5.194 4.083-13.092 5.861-18.77a154 154 0 0 1 13.962-31.267c1.353-2.324 2.851-5.793 4.983-7.315.278-.319 2.543-4.058 2.887-4.628 1.72-2.852 3.283-5.136 5.293-7.787 1.753-2.885 9.768-11.97 12.442-13.898 2.928-3.362 5.21-5.702 8.947-8.113 2.842-3.128 10.689-9.064 14.506-11.208 3.795-2.933 12.322-7.772 16.645-9.667 3.296-3.068 21.397-9.509 26.51-10.95a64.5 64.5 0 0 1 8.997-1.89c1.614-.551 2.465-.744 4.138-1.085 2.98-.763 13.909-2.225 16.857-2.025 2.757-.596 9.23-.707 12.159-.805"/><path fill="#684a2a" d="M210.565 116.268c2.7.194 5.346.312 8.036.484l3.096.023c3.358.408 6.645.664 9.982 1.044 4.148.552 7.821 1.18 11.94 1.95 2.9-.043 14.88 3.148 17.657 4.297 3.21 1.069 7.12 2.311 10.19 3.627 1.318.543 4.317 1.62 5.42 2.161l2.822 1.204c3.833 1.524 7.622 3.536 11.191 5.61-.606.994-1.689 3.106-2.66 3.521-1.687-.095-6.088 1.054-7.831 1.541-15.865 4.438-29.022 12.909-42.122 22.574-16.204-12.034-31.061-21.507-50.479-27.529 4.233-5.179 10.89-10.506 15.986-14.867 2.229-1.907 4.611-3.58 6.772-5.64"/><path fill="#56f5df" d="M231.679 117.82c4.148.552 7.821 1.179 11.94 1.949 2.9-.043 14.88 3.148 17.657 4.297 3.21 1.069 7.12 2.311 10.19 3.627-4.798 2.675-11.216 4.542-16.109 6.91-5.982 2.897-11.131 5.791-17.31 8.456-3.957-1.311-7.665-4.084-11.436-5.945-2.763-1.363-5.82-2.46-8.412-4.072-.863-.537-1.458-1.114-1.67-2.113.731-3.859 11.67-10.559 15.15-13.11"/><path fill="#684a2a" d="M243.619 119.769c2.9-.043 14.88 3.148 17.657 4.297-7.582 3.053-15.429 7.038-22.745 10.76a218 218 0 0 0-10.418-5.252c4.885-3.493 11.319-6.603 15.506-9.806"/><path fill="#684a2a" d="M221.698 116.775c3.357.408 6.644.664 9.98 1.044-3.479 2.551-14.418 9.251-15.149 13.11.213.999.808 1.576 1.67 2.113 2.593 1.612 5.649 2.71 8.411 4.072 3.772 1.861 7.48 4.633 11.437 5.945 6.179-2.665 11.328-5.559 17.31-8.455 4.893-2.369 11.31-4.236 16.109-6.91 1.318.542 4.317 1.62 5.42 2.16-9.215 5.076-18.675 9.098-28.059 13.815-4.659 2.342-9.232 4.647-14.022 6.72-4.117-1.954-9.639-5.735-13.675-8.26-3.892-2.434-11.995-6.613-15.083-9.51 2.644-6.077 14.617-12.416 15.65-15.844"/><path fill="#56f5df" d="m218.6 116.752 3.097.023c-1.033 3.427-13.006 9.767-15.65 15.844 3.088 2.897 11.191 7.076 15.083 9.51 4.036 2.525 9.558 6.307 13.676 8.26 4.79-2.073 9.362-4.378 14.021-6.72 9.384-4.717 18.844-8.739 28.058-13.815l2.823 1.204c-10.552 5.814-21.7 10.907-32.522 16.213-3.93 1.928-8.17 3.984-12.268 5.483-4.614-1.751-9.828-5.369-14.084-7.974-3.298-2.018-16.961-8.745-17.013-12.465-.055-3.932 11.661-12.93 14.78-15.563"/><path fill="#684a2a" d="M286.135 233.242c3.06 4.087 4.487 6.5 8.118 10.37-11.058 6.114-19.81 12.691-30.09 19.888-15.42 10.797-31.779 21-48.544 29.574-2.968 1.517-7.636 3.945-10.588 5.17-3.631-9.417-7.948-18.479-11.637-28.186 16.989-9.74 28.424-17.195 43.274-30.317 5.35 2.339 10.253 4.53 15.414 7.274 3.883 2.065 7.728 4.427 11.661 6.319 8.95-5.394 15.646-12.186 22.392-20.092"/><path fill="#56f5df" d="M233.627 249.75c.543-.015 1.617-.022 2.097.058 3.502.578 15.37 7.283 17.153 9.99.637.958.838 2.14.554 3.255-1.234 4.76-25.397 18.358-30.799 21.485-1.725.978-5.846 3.366-7.708 2.887-3.67-.942-6.093-7.446-7.601-10.6-.506-1.017-1.965-5.16-1.349-6.147 3.07-4.922 12.465-10.135 16.933-13.492 4.053-3.046 7.145-5.46 10.72-7.436"/><path fill="#684a2a" d="M234.619 251.98c2.401.106 8.869 4.089 11.28 5.5 2.041 1.193 5.206 2.534 5.034 5.164-1.953 3.961-23.791 16.515-28.834 19.472-5.165 3.08-7.319 4.553-10.5-1.656-1.627-3.177-2.602-5.531-3.494-9.011 2.53-3.14 22.1-16.745 26.514-19.469"/><path fill="#56f5df" d="M233.337 259.199c1.35-.051 3.143.131 3.826 1.502 1.147 2.304-1.081 4.621-2.737 5.943-5.286 4.22-11.111 7.705-16.933 11.121-3.21-.056-5.439-2.877-2.808-5.413 1.573-1.516 4.248-3.17 6.1-4.475a527 527 0 0 1 12.552-8.678"/><path fill="#684a2a" d="M241.353 171.484c8.015-6.53 19.084-13.559 28.512-17.742l-.773 1.672c-6.323 10.676-9.336 20.952-7.316 33.521 1.724 10.729 6.505 17.672 15.875 23.166q.353.207.708.41c.604 3.09 1.024 5.074 2.032 8.099.391 1.173 1.903 5.07 2.112 6.004-5.647 7.148-12.435 12.737-19.614 18.254-8.051-4.62-15.309-8.399-23.842-12.01-.938-4.649-1.039-10.682-1.131-15.45a243 243 0 0 1 1.23-31.163c.54-4.805 1.45-9.95 2.207-14.762"/><path fill="#56f5df" d="M251.999 173.739c2.107-.036 4.349.252 5.664 2.121.57.825.79 1.842.607 2.828-.371 2.114-1.751 3.08-3.331 4.244a535 535 0 0 0 .344 27.184c3.467 2.618 8.186 5.182 12.002 7.614 5.366-2.892 9.663-.547 7.71 5.694-4.283 4.45-8.567 2.222-9.024-3.686-3.624-2.276-9.586-5.073-12.493-7.827-1.783-4.695-1.138-22.667-1.268-28.917-4.679-3.154-4.37-5.909-.211-9.256"/><path fill="#684a2a" d="M186.759 273.032c1.711 4.21 3.191 8.597 4.828 12.853a479 479 0 0 0 6.356 15.449c-22.202 7.623-39.682 11.112-63.473 10.013-3.53-.163-10.439-.176-13.676-.657 1.259-2.26 2.892-7.776 3.703-10.397q3.033-10.007 5.935-20.053c20.069.243 36.91-1.577 56.327-7.209"/><path fill="#56f5df" d="M177.966 282.34c.915-.128 2.267-.086 3.229-.092.43.255.843.509 1.23.827 2.8 2.306 5.581 9.835 5.78 13.48.073 1.334-.299 2.594-1.256 3.55-4.675 4.672-26.751 6.974-33.636 7.467-2.953.212-5.916.205-8.875.218-2.954.031-9.924.585-10.237-3.531-.324-4.276.731-11.826 3.067-15.466 1.319-2.055 8.549-2.237 10.98-2.41 10.026-.711 19.822-2.4 29.718-4.042"/><path fill="#684a2a" d="M178.091 284.835c1.053-.18 2.341-.333 3.191.465 2.608 2.435 3.554 6.578 4.302 9.948.966 4.349-4.377 5.21-7.538 6.046-11.025 2.918-22.293 3.953-33.666 4.221-1.706.027-8.047.585-7.834-2.214.299-3.948.458-9.656 2.72-12.966.346-.505 2.648-.903 3.362-1.052 12.01-.605 23.62-2.55 35.463-4.448"/><path fill="#56f5df" d="M170.794 290.839c4.424-.543 6.733 5.595-2.029 6.997-7.7 1.231-14.902 2.366-22.827 2.435-1.732-.03-3.736-.81-3.94-2.564-.481-4.108 4.088-4.025 6.759-4.221 2.122-.156 3.673-.312 5.465-.494a277 277 0 0 0 16.571-2.153"/><path fill="#684a2a" d="M81.023 271.138c10.264 4.576 30.182 8.637 41.409 9.19-1.613 6.71-3.617 12.472-5.828 19.01-.944 2.791-2.61 7.528-3.177 10.377-1.986.101-7.74-.991-9.91-1.46-10.37-2.24-29.051-7.183-37.827-13.193 5.373-7.6 10.428-15.976 15.333-23.924"/><path fill="#56f5df" d="M83.882 279.516c4.588.007 10.079 1.724 14.638 2.695 10.357 2.203 18.178 1.637 12.79 14.905-1.445 3.558-2.481 6.235-6.47 7.372a71 71 0 0 1-10.814-2.005c-4.078-1.053-15.013-3.947-17.838-7.296-1.62-1.92.87-6.887 1.888-8.942 1.534-3.1 2.428-5.086 5.806-6.73"/><path fill="#684a2a" d="M84.25 281.727c7.595 1.148 15.525 3.502 23.181 4.937 6.012 1.125 2.091 7.345 1.106 10.897-.649 2.339-1.73 3.622-3.889 4.73-8.867-1.618-19.15-4.038-26.962-8.57.88-4.052 3.58-9.089 6.563-11.994"/><path fill="#56f5df" d="M85.668 287.205c2.646.236 16.753 2.757 18.159 4.1.561.537.902 1.188.913 1.974.02 1.418-1.033 2.507-1.937 3.457-3.662.136-14.4-2.642-18.007-3.966-1.672-2.856-1.296-3.349.871-5.565"/><path fill="#684a2a" d="M181.55 119.098c2.98-.763 13.907-2.225 16.856-2.025a126.5 126.5 0 0 0-20.218 19.38c-3.094 3.7-5.991 7.702-9.013 11.299-21.185.064-37.984 2.79-58.422 6.146 2.842-3.128 10.689-9.064 14.506-11.208 3.795-2.933 12.322-7.772 16.645-9.667 3.296-3.068 21.397-9.509 26.51-10.95a64.5 64.5 0 0 1 8.997-1.89c1.614-.551 2.465-.744 4.138-1.085"/><path fill="#56f5df" d="m181.55 119.098.073.56c-2.631 3.252-6.218 5.448-8.974 9.308.154 3.113.387 4.36-2.39 6.255-1.099.111-2.3.206-3.381.385a45 45 0 0 0-3.18 3.119 453 453 0 0 0-25.284 2.101c-2.703.325-11.108 2.002-13.155 1.864 3.795-2.933 12.322-7.772 16.645-9.667 3.296-3.068 21.397-9.509 26.51-10.95a64.5 64.5 0 0 1 8.997-1.89c1.614-.551 2.465-.744 4.138-1.085"/><path fill="#684a2a" d="M141.904 133.023c3.296-3.068 21.397-9.509 26.51-10.95a64.5 64.5 0 0 1 8.997-1.89c-2.054 1.94-4.985 4.899-7.069 6.628-4.614-1.477-6.574.263-6.973 4.94-7.107.01-14.357 1.057-21.465 1.272M32.482 265.613c3.528-3.007 7.102-5.685 10.758-8.509 2.746-2.121 5.268-4.417 8.142-6.403a79.6 79.6 0 0 0 23.457 18.138q-4.965 7.26-9.851 14.572c-1.669 2.538-3.561 5.774-5.236 8.163-.817-.245-4.132-2.532-4.949-3.113-8.513-6.052-17.334-13.553-22.321-22.848"/><path fill="#56f5df" d="M48.697 257.523q.492.096.97.248c4.326 1.348 9.02 6.946 12.817 9.494 7.178 4.817-3.55 14.062-8.367 16.144-5.068-.519-14.732-10.604-16.591-15.284-1.875-4.719 7.696-9.511 11.17-10.602"/><path fill="#684a2a" d="M48.51 259.695c2.626 1.009 12.392 9.154 14.178 11.372-1.5 4.241-5.096 7.616-8.773 10.043-4.96-2.279-11.499-9.09-14.358-13.619 1.797-3.964 5.327-5.726 8.952-7.796"/><path fill="#56f5df" d="M46.348 264.221c1.371-.067 1.908-.046 3.074.777 1.972 1.392 7.65 5.429 8.152 7.742-.189 1.101-.764 1.667-1.447 2.575-3.645 1.801-9.835-4.674-10.796-7.878-.353-1.178.383-2.3 1.017-3.216"/><path fill="#684a2a" d="M56.378 245.676c2.419-5.194 4.083-13.092 5.861-18.77a154 154 0 0 1 13.962-31.267c1.353-2.324 2.851-5.793 4.983-7.315-1.662 4.796-4.106 9.331-6.02 14.034-2.014 4.95-9.727 25.803-7.811 30.168.324.74.887 1.33 1.663 1.601.863.303 1.772.125 2.53-.351.652-.41 1.061-1.046 1.378-1.732 1.151-2.492 1.707-5.437 2.417-8.088a812 812 0 0 1 3.346-12.248c3.211.79 5.733 1.441 8.874 2.461-4.93 13.52-9.094 33.018-10.777 47.31-8.156-4.654-13.51-9.506-20.407-15.803"/><path fill="#684a2a" d="M101.807 162.011c3.501-.005 6.73-.654 10.153-1.29-5.715 9.773-10.573 18.327-15.135 28.805-3.269 7.509-5.618 14.551-8.514 22.078a145 145 0 0 0-8.78-2.131 159 159 0 0 1 7.463-19.713c1.703-3.742 3.747-7.336 5.226-11.15.324-.837.165-.77-.2-1.578-.835-.787-1.382-.793-2.541-1.092l-.115-.031c1.753-2.885 9.768-11.97 12.442-13.898m80.486-19.594c1.925.39 6.978 2.445 8.957 3.256a172.3 172.3 0 0 1 42.619 25.13c-3.58 21.006-4.61 41.279-1.69 62.47-13.255 12.514-34.038 28.08-51.413 33.703q-.014-17.017.168-34.032c6.414-1.558 16.733-4.048 22.747-7.08 1.71-.862 1.593-7.983 1.7-10.297l.636-12.505c.233-4.061 1.844-16.49.104-18.653-1.812-2.253-20.125-1.241-23.288-1.142.858-4.14 2.476-8.841 2.813-13.054-.056-2.514-1.634-3.435-3.816-3.683-3.65-.414-7.141-.308-10.757-.313l-16.853-.019a146 146 0 0 0-16.35.096c-7.502.462-7.586 5.916-9.023 11.814A491 491 0 0 1 125.574 191c-2.831-.27-8.511-1.179-10.796.714-3.663 3.036-7.445 30.6-8.618 37.03-5.258-.136-12.06.259-7.522 7.292 2.881.72 4.073.688 7.042.698-1.479 10.894-1.881 22.425-1.718 33.408-7.54-1.635-12.525-2.923-19.787-5.449.303-5.097 1.384-11.458 2.278-16.504a256.6 256.6 0 0 1 25.221-73.891c2.511-4.73 5.947-10.917 9.261-15.125 2.874-.72 7.092-1.13 10.107-1.472q9.115-1.095 18.278-1.675c6.667-.465 16.649-1.39 23.158-.763 3.29-3.939 6.698-8.707 9.815-12.846"/><path fill="#684a2a" d="M137.127 173.613c12.963.238 27.207-.114 40.334-.057-.907 4.213-2.082 8.818-2.635 13.047-.687 5.266 9.001 4.215 12.249 4.162a283 283 0 0 1 12.23-.044c-.23 10.092-1.93 19.53-1.808 30.314-5.104 1.125-17.82 4.145-22.042 6.88-2.21 1.431-1.755 10.76-1.747 13.648q-.191 5.418-.216 10.84c-15.509-5.775-23.66-13.439-27.889-29.538 2.164-.012 8.9.519 9.886-.952 2.787-4.161 2.133-16.61 3.079-21.728.462-2.498.301-6.959-.918-8.387-3.381-1.523-20.119-1.114-24.613-.878z"/><path fill="#684a2a" d="M119.106 198.046q16.113.202 32.227.208a454 454 0 0 0-2.025 17.282c-3.237-.119-14.052-1.065-16.085.916-3.081 3.002-4.468 36.144-4.811 41.86-.41 4.282-.298 10.584-.32 15.012-4.337-.809-12.744-1.485-17.333-1.971.325-25.985 3.178-48.085 8.347-73.307"/><path fill="#684a2a" d="m138.54 222.765 4.591.009c2.305 16.684 15.099 27.345 30.396 32.434.099 4.441.096 9.545.506 13.917q-2.9.552-5.806 1.072c-11.09 2.01-21.763 2.505-32.969 2.804-.033-17.8 1.729-32.729 3.282-50.236"/><path fill="#a5c56e" d="M338.779 115.146c16.086-1.763 33.384 7.324 42.063 20.774 1.748 2.562 5.346 6.124 8.394 3.276 5.44-5.082-4.322-13.817-7.673-17.38 3.648-.446 7.317-.695 10.991-.743 18.694-.206 38.95 4.963 52.513 18.371 11.308 10.553 15.078 25.447 21.465 38.818 4.757 9.957 9.723 14.159 9.509 26.308-.225 12.819-5.589 22.202-14.577 31.067-17.36 17.119-42.183 24.435-65.91 26.52-4.563.369-13.345.123-18.127.116-1.526 1.075-3.629 3.091-3.089 5.171 1.26 4.658 8.16 3.892 11.851 3.96 10.748.194 21.08-1.168 31.517-3.631-3.624 9.251-7.465 15.298-15.316 21.691-18.443 13.642-45.514 9.628-65.229.86-3.56-1.583-7.18-3.77-11.065-4.262l-.396-.048c-3.675 2.722-8.327 6.858-11.847 9.915-8.368 7.267-15.682 13.33-25.332 18.771.304-4.552.25-7.262-.082-11.747 10.015-16.69 13.587-30.443 16.504-49.701 3.192 2.213 9.098 7.048 13.196 6.52 2.723-.351 3.882-4.751 1.987-6.767-1.125-1.197-2.367-2-3.786-2.856-13.222-8.405-23.121-19.753-27.318-35.058a31.7 31.7 0 0 0 12.718-3.835c24.802-13.717 27.717-62.172-2.329-70.51a96 96 0 0 1 5.236-7.012c9.679-11.786 18.951-17.102 34.132-18.588"/><path fill="#211f16" d="m333.912 154.36-.335-.142c-2.674-1.156-5.507-3.662-3.788-6.796 2.428-4.426 8.913-7.264 13.452-8.942 7.38-2.456 15.025-1.778 21.918 1.709a34.53 34.53 0 0 1 17.495 20.281c2.45 7.68 1.929 16.435-1.791 23.623-4.11 7.94-12.056 11.237-20.585 11.722-3.257 2.053-12.442-.264-15.815-1.68-8.975-3.77-14.621-13.074-14.743-22.691-.079-6.271 1.72-11.423 4.192-17.084"/><path fill="#fffffe" d="M333.912 154.36c5.753-1.473 9.313-5.9 15.338-6.54.611-.066 1.33-.206 1.859.076-.916 1.334-3.999 2.624-5.274 3.912-9.201 9.3-10.933 22.124-4.221 33.327l.958 1.304c4.873 5.983 9.937 8.648 17.706 9.376-3.257 2.053-12.442-.264-15.815-1.68-8.975-3.77-14.621-13.074-14.743-22.691-.079-6.271 1.72-11.423 4.192-17.084"/><path fill="#0f0f0c" d="M341.614 185.135c.717-.545.936-.824 1.832-.867l.367.275c-.069.97-.45 1.317-1.241 1.895z"/><path fill="#fffffe" d="M366.438 157.898c1.493-.18 2.384-.29 3.836.208 3.317 2.224 4.558 6.285.92 8.862a5.67 5.67 0 0 1-4.226.955c-3.122-.538-4.475-3.373-3.892-6.39.335-1.736 1.909-2.804 3.362-3.635"/><path fill="#0f0f0c" d="M363.756 156.754c3.53-.72 5.038-.686 8.65-.69l-2.132 2.042c-1.452-.498-2.344-.387-3.836-.208zm11.778 3.161.353.462c.104 1.782-.019 4.632-.452 6.361l-.142.001a27.8 27.8 0 0 1 .24-6.824"/><path fill="#211f16" d="M338.061 204.507c1.629.131 3.489.904 4.479 2.202 17.844 23.406 44.145 7.908 68.758 10.964a57 57 0 0 1 10.855 2.525c10.968 3.699 22.532 9.94 32.912 1.614 1.944-1.559 6.392-5.997 8.935-5.998 6.51 0 3.61 6.831.599 9.977-6.176 5.74-13.378 9.697-21.979 9.439-11.839-.354-22.312-7.882-33.957-8.646-17.556-1.102-35.387 5.898-52.68.59-8.007-2.459-16.802-8.144-21.109-15.562-2.028-3.493-.073-5.633 3.187-7.105m87.366-27.748c4.6.113 9.003 5.367 10.97 9.169 1.955 3.781 1.126 5.989-2.483 7.826-2.725.074-4.167-.906-5.636-3.101-3.264-4.877-11.137-9.848-2.852-13.894m31.492 1.993c3.548-.059 4.5.257 6.36 3.502a25 25 0 0 1-.23 3.511c-.52 3.695-1.79 5.727-4.667 7.903-9.216 1.353-6.709-10.299-1.463-14.916"/><path fill="#a5c56e" d="M418.735 285.949c19.935 17.969 27.252 67.862 28.82 93.238-6.69-.19-9.959.137-14.918 4.765-2.935-2.608-5.495-4.28-9.496-4.822a14.68 14.68 0 0 0-10.911 2.952c-4.351 3.331-6.245 8.322-6.923 13.608-.31 2.23-.338 4.623-.418 6.883-8.517-1.174-17.994.133-25.487-4.577-2.217-4.815-1.431-14.966-1.417-20.526l.002-26.306c14.38-12.881 24.318-25.627 31.381-43.921 3.418-8.855 3.19-13.358 9.367-21.294m-333.28 31.217c1.477 1.11 8.666 10.085 10.761 12.343 9.856 10.618 18.508 17.826 30.596 25.614-10.746 29.153 6.504 30.277 4.586 44.235-1.222.741-1.739.917-3.059 1.411-1.854-12.389-5.525-24.003-20.727-21.952-3.348.876-5.055 2.252-7.737 4.355-9.082-8.742-21.151-5.423-25.722 5.83-1.456 3.584-1.729 6.885-1.947 10.709-2.623-.621-5.118-1.32-7.528-2.559-5.785-2.974-3.593-11.191-2.92-16.467 2.904-22.733 11.744-44.074 23.697-63.519"/><path fill="#56f5df" d="M210.457 333.106c13.26-.563 27.342-.06 40.653.097 2.302.027 5.058 1.347 4.946 4.031-.461 11.097-2.25 22.357-3.846 33.352-.916 6.255-5.577 6.404-10.874 6.428l-29.682.13c-3.933-.017-8.947.065-12.819-.464-1.72-.235-2.646-1.38-3.541-2.75.18-5.27 3.329-34.535 6.288-38.033 2.144-2.534 5.829-2.594 8.875-2.791"/><path fill="#211f16" d="m213.18 343.287 16.781-.025c1.758.005 9.29-.14 10.543.4 4.553 1.959 3.024 6.562-.64 8.587l-15.439.023c-3.445.033-6.879.275-10.306-.126-3.105-.363-4.87-2.363-4.08-5.515.431-1.721 1.726-2.476 3.142-3.344m-1.835 14.971c8.791-.035 18.383-.433 27.034.477 2.525.265 3.743 5.576-.766 7.995q-8.374.254-16.752.231c-2.526-.009-6.778.135-9.16-.39-5.01-1.103-4.178-5.96-.357-8.313"/><path fill="#a5c56e" d="M256.41 280.207c6.3 1.295 13.633 5.103 17.568 10.308 7.084 9.372 6.13 20.909 5.13 31.937-.375 4.134-.64 8.347-1.176 12.426-4.24-.091-8.557-.087-12.804-.125-3.601-11.786-11.481-11.083-21.898-10.767l-34.542.262c1.773-5.015 8.724-18.544 12.338-22.45 1.95-2.108 13.551-7.588 16.965-9.743 6.005-3.791 12.373-8.103 18.419-11.848"/><path fill="#56f5df" d="M292.683 149.583c2.892-.296 7.07.983 9.37 2.706 12.784 9.573 12.05 31.23 3.44 43.255-4.06 5.668-9.125 8.817-15.794 9.962-11.475-.1-17.704-7.919-19.233-18.773a37.62 37.62 0 0 1 7.214-27.858c3.986-5.267 8.404-8.397 15.002-9.292"/><path fill="#211f16" d="M290.529 161.302c19.3-.757 20.082 29.995.861 34.731-3.082-.086-5.937-.49-8.568-2.174-10.945-7.007-7.752-26.038 3.416-31.172 1.512-.695 2.692-1.008 4.291-1.386"/><path fill="#56f5df" d="M290.882 170.494c.839.029 1.537.06 2.344.327a5.5 5.5 0 0 1 3.269 2.911c2.4 5.259-1.024 11.009-6.036 13.237-.644-.082-1.254-.174-1.879-.359a6.17 6.17 0 0 1-3.754-3.183c-2.582-5.296 1.075-10.754 6.056-12.933"/><path fill="#decea3" d="M326.74 296.445c1.205.413 2.842 1.106 4.025 1.657 10.95 5.097 21.78 7.406 33.712 8.998-4.312 12.115-11.847 23.149-20.474 32.587l-3.853-.767c-13.743-3.442-28.862-11.827-39.298-21.336 3.364-2.697 6.915-5.272 10.335-8.018a528 528 0 0 0 15.553-13.121"/><path fill="#eadfbb" d="M327.174 299.097c.763.073 1.409.018 1.948.505l-.206.44c-1.12-.07-1.187-.081-2.265-.39l-.053-.28z"/><path fill="#927552" d="M175.988 317.512c12.453-2.445 19.976-5.288 31.555-10.04-3.966 7.053-5.45 10.83-8.199 18.43-4.577 3.435-7.132 5.7-8.022 11.798a37 37 0 0 0-.178 1.43q-.765 4.344-1.454 8.7c.029.917-.59 4.949-.748 6.063l-1.788 12.554a212 212 0 0 1-14.44-3.409 91 91 0 0 1-19.126-42.468c4.969-.54 9.925-1.242 14.894-1.78q3.762-.586 7.506-1.279"/><path fill="#927552" d="M175.988 317.512c12.453-2.445 19.976-5.288 31.555-10.04-3.966 7.053-5.45 10.83-8.199 18.43-4.577 3.435-7.132 5.7-8.022 11.798a37 37 0 0 0-.178 1.43c-6.274-4.969-10.882-14.755-15.156-21.618"/><path fill="#56f5df" d="M168.482 318.79q3.762-.586 7.506-1.279c4.274 6.863 8.882 16.65 15.156 21.619q-.765 4.344-1.454 8.7c-9.998-7.294-16.18-18.097-21.208-29.04"/><path fill="#decea3" d="M297.77 319.511c13.509 11.67 26.32 18.473 43.66 23.161-6.158 5.868-10.635 9.845-17.753 14.542-11.411 7.39-21.454 5.577-34.53 4.486.457-4.204.884-8.423 1.292-12.631.522-5.375.472-9.312-3.463-13.466.454-3.3.524-6.594 1.098-9.877a287 287 0 0 0 9.695-6.215"/><path fill="#eadfbb" d="M324.682 338.315c.346.116.834.346 1.184.495.404.801.337.365.007 1.375-.726-.108-1.084-.105-1.717-.489-.098-.753-.021-.565.526-1.382"/><path fill="#a5c56e" d="M260.507 375.983q8.385.064 16.772.016c-.077 2.84-.25 5.46-.282 8.357 3.375 5.64 10.409 15.982 8.281 23.245-.34 1.163-2.527 1.84-3.65 2.279-.975-5.784-2.162-10.66-5.977-15.3-4.978-6.052-13.784-6.938-20.163-2.625-1.143.773-2.306 1.868-3.346 2.786-.726-.683-1.567-1.443-2.344-2.059a16.33 16.33 0 0 0-12.3-3.387c-4.938.66-7.748 3.157-10.576 6.924-3.379 5.52-3.767 9.584-4.028 15.813-7.011-.362-24.094-.968-28.709-7.094-2.641-3.505-.772-16.09.145-20.758q.553.239 1.11.467c3.562 1.464 6.572 1.072 10.334 1.086l12.579.031 18.296-.018c9.803-.053 19.465 1.186 23.858-9.763"/><path fill="#927552" d="M96.823 316.335c5.02 1.228 10.073 1.946 15.132 3.014l8.54 1.082c11.102.787 18.948 1.144 29.87.271 2.037 11.32 5.16 21.09 10.739 31.24 1.87 3.401 4.005 6.561 5.956 9.914-7.374-2.49-21.354-7.208-27.81-11.291-3.893-1.716-7.929-4.308-11.472-6.678-1.467-.51-4.238-2.57-5.623-3.557-9.118-6.5-18.507-15.078-25.332-23.995"/><path fill="#56f5df" d="M96.823 316.335c5.02 1.228 10.073 1.946 15.132 3.014l8.54 1.082c4.386 8.066 8.798 15.357 15.596 21.703 1.391 1.298 5.215 4.87 4.963 6.604-.665.988-.841 1.071-1.804 1.827-3.893-1.716-7.929-4.308-11.472-6.678-1.467-.51-4.238-2.57-5.623-3.557-9.118-6.5-18.507-15.078-25.332-23.995"/><path fill="#927552" d="M96.823 316.335c5.02 1.228 10.073 1.946 15.132 3.014-1.038 4.73 12.74 20.372 15.823 24.539-1.467-.511-4.238-2.57-5.623-3.558-9.118-6.5-18.507-15.078-25.332-23.995"/><path fill="#a5c56e" d="M64.241 305.414c1.88.241 11.302 4.992 13.37 6.067a267 267 0 0 0-13.235 26.189c-8.248 1.165-11.869 1.18-19.84-.586-6.853-2.304-11.068-4.008-15.124-10.355 16.423-5.315 22.49-9.466 34.829-21.315"/><path fill="#decea3" d="M373.967 307.501c11.152-.487 18.111-1.389 28.097-6.77-3.433 10.02-12.461 29.385-22.214 34.752-6.13 3.372-17.415 4.868-24.519 5.119 3.429-4.682 6.943-9.282 9.864-14.3l.771-1.343c3.353-6.297 5.553-10.765 8.001-17.458"/><path fill="#56f5df" d="M264.834 343.617a523 523 0 0 1 17.073.169c-.199 6.812-.934 17.169-3.18 23.467q-8.457.056-16.914-.007c.596-5.86 1.692-18.404 3.02-23.63"/><path fill="#a5c56e" d="M445.169 120.337c17.469-1.793 29.732 6.883 25.42 25.367-1.21-.928-2.515-1.779-3.78-2.635-3.112-1.552-4.235-1.471-7.615-1.311-8.096-11.285-10.709-12.693-21.721-20.007q3.83-.802 7.695-1.415"/><path fill="#927552" d="M276.781 266.46c3.005.026 11.632 7.172 13.907 9.318a127 127 0 0 1-5.887 15.215l-1.772-3.019c-5.435-7.726-8.702-9.984-17.043-14.017z"/><path fill="#decea3" d="m375.429 340.588-.025.268c-1.168 1.253-4.625 3.738-6.141 4.832-11.126 8.033-21.275 11.976-34.546 14.836l-.031-.21c.495-.759 4.797-4.134 5.812-4.946 4.512-3.606 8.201-7.35 12.103-11.593 9.924.018 13.53-.73 22.827-3.187"/><path fill="#fffffe" d="M238.568 398.013c9.487-.285 10.819 7.261 12.132 14.665l-6.45.053a273 273 0 0 1-12.514-.183c-.014-6.23.529-11.67 6.832-14.536m181.529-10.267c9.233-.25 10.315 7.933 11.647 15.04l-6.107.178q-5.947.075-11.893-.076c.084-6.308-.004-11.936 6.353-15.142M87.177 387c8.674-.058 9.99 8.187 10.691 15.036-1.821-.03-3.728-.156-5.555-.25-3.686-.134-7.966-.35-11.609-.858-.031-5.861 1.129-10.772 6.473-13.928m357.272.786c8.337-.332 9.98 6.718 11.765 13.238q-3.15.321-6.296.693c-3.014.077-6.543.422-9.642.575-1.66-6.972-4.525-12.041 4.173-14.506m-334.23-.536c7.8-.104 8.596 8.667 9.618 14.491l-5.112.247-8.33.171c-.251-3.416-1.004-7.363-1.651-10.725 1.798-2.541 2.704-3.11 5.475-4.185m152.24 11.061c1.692-.139 2.161-.1 3.819.074 5.3 2.476 5.99 7.907 6.883 13.067-4.618.457-9.206.563-13.81 1.093-.257-3.016-1.266-7.228-1.919-10.236 1.738-2.357 2.436-2.947 5.026-3.998"/><path fill="#684a2a" d="m295.212 253.981.276.385c.117 3.258-2.781 13.745-3.734 17.456-2.042-1.583-4.178-3.069-6.286-4.565a125 125 0 0 1-5.249-3.177c2.91-2.712 11.489-8 14.993-10.099"/><path fill="#fffffe" d="m467.644 154.742.286-.018c5.454-.305 7.981 4.838 4.092 9.167-1.71.22-3.369-.164-4.649-1.37a5.33 5.33 0 0 1-1.655-3.932c.009-1.847.68-2.636 1.925-3.847"/><path fill="#684a2a" d="M424.718 273.436c1.21 1.222 4.757 9.595 4.623 10.999l-.541-.209c-1.817-2.272-3.812-4.005-5.937-5.98a326 326 0 0 0 1.855-4.81"/><path fill="#0f0f0c" d="M259.43 396.597c3.644-.667 5.725-.452 9.4-.32l-2.552 2.107c-1.658-.173-2.127-.213-3.82-.074a34 34 0 0 0-3.029-1.713m217.099-219.71c.626 1.1.36 5.564.172 6.941l-.266-.254c-.602-1.515-.326-5.107.093-6.687M284.634 327.692c.496.999.117 6.351.04 7.871-1.005-1.271-.284-6.274-.04-7.871M86.057 384.387c1.346-.12 4.564-.377 5.694.21l-.241.179c-1.412.02-4.817.175-5.976-.144zm183.808-230.645c.784.369 1.101.425 1.54 1.171-.477 1.046-1.328.688-2.312.501zm95.33 172.56c-.837-.738-1.065-.828-.815-1.957l.45-.278c.896.349.516.082 1.136.892zm66.021-211.207c1.46-.256 3.026-.3 4.407.275-1.61.192-2.97.499-4.407-.276"/></svg>