<svg xmlns="http://www.w3.org/2000/svg" fill="none" viewBox="0 0 24 24" id="Security--Streamline-Outlined-Material" height="24" width="24">
  <desc>
    Security Streamline Icon: https://streamlinehq.com
  </desc>
  <path fill="#000000" d="M12 22c-2.33335 -0.58335 -4.25 -1.9375 -5.75 -4.0625S4 13.48335 4 10.95V5l8 -3 8 3v5.95c0 2.53335 -0.75 4.8625 -2.25 6.9875S14.33335 21.41665 12 22Zm0 -1.55c1.76665 -0.58335 3.22915 -1.65415 4.3875 -3.2125S18.225 13.93335 18.425 12H12V3.625L5.5 6.05v4.9c0 0.2 0.00415 0.37085 0.0125 0.5125 0.00835 0.14165 0.02915 0.32085 0.0625 0.5375H12v8.45Z" stroke-width="0.5"></path>
</svg>